<?xml version="1.0" encoding="utf-8"?>
<!-- Generator: Adobe Illustrator 16.0.0, SVG Export Plug-In . SVG Version: 6.00 Build 0)  -->
<!DOCTYPE svg PUBLIC "-//W3C//DTD SVG 1.1//EN" "http://www.w3.org/Graphics/SVG/1.1/DTD/svg11.dtd">
<svg version="1.1" id="Layer_1" xmlns="http://www.w3.org/2000/svg" xmlns:xlink="http://www.w3.org/1999/xlink" x="0px" y="0px"
	 width="200px" height="70px" viewBox="0 0 200 70" enable-background="new 0 0 200 70" xml:space="preserve">
<g>
	<defs>
		<path id="SVGID_1_" d="M8.629,14.452v4.094h0.092c0.552-1.441,1.533-2.599,2.944-3.473c1.41-0.874,2.959-1.311,4.646-1.311
			c1.656,0,3.043,0.215,4.163,0.644c1.119,0.43,2.016,1.035,2.691,1.817c0.674,0.782,1.15,1.741,1.426,2.875
			c0.276,1.135,0.414,2.408,0.414,3.818v15.271h-2.898V23.376c0-1.012-0.092-1.955-0.276-2.829
			c-0.184-0.874-0.506-1.633-0.966-2.277s-1.081-1.15-1.863-1.518c-0.782-0.368-1.756-0.552-2.921-0.552
			c-1.166,0-2.201,0.207-3.105,0.621c-0.905,0.414-1.672,0.982-2.3,1.702c-0.629,0.721-1.12,1.58-1.472,2.576
			c-0.353,0.997-0.545,2.078-0.575,3.243v13.846H5.731V14.452H8.629z M47.037,38.188V33.91h-0.092
			c-0.767,1.595-1.879,2.813-3.335,3.656c-1.457,0.844-3.075,1.266-4.853,1.266c-1.503,0-2.783-0.207-3.841-0.621
			s-1.917-1.004-2.576-1.771c-0.66-0.766-1.143-1.702-1.449-2.806c-0.307-1.104-0.46-2.361-0.46-3.772v-15.41h2.898v15.456
			c0.061,2.147,0.559,3.772,1.495,4.876c0.935,1.104,2.553,1.655,4.853,1.655c1.257,0,2.33-0.268,3.22-0.805
			c0.889-0.536,1.625-1.249,2.208-2.139c0.582-0.89,1.012-1.909,1.288-3.059c0.276-1.15,0.414-2.323,0.414-3.519V14.452h2.898
			v23.735H47.037z M57.849,14.452v4.002h0.138c0.766-1.472,1.771-2.622,3.013-3.45c1.242-0.828,2.829-1.242,4.761-1.242
			c1.564,0,2.982,0.384,4.255,1.15c1.272,0.767,2.123,1.932,2.553,3.496c0.705-1.564,1.748-2.729,3.128-3.496
			c1.38-0.766,2.852-1.15,4.416-1.15c5.244,0,7.866,2.776,7.866,8.326v16.1h-2.898V22.226c0-1.962-0.414-3.457-1.242-4.485
			c-0.828-1.027-2.285-1.541-4.37-1.541c-1.258,0-2.3,0.238-3.128,0.713c-0.828,0.476-1.488,1.112-1.978,1.909
			c-0.491,0.798-0.836,1.71-1.035,2.737c-0.2,1.028-0.299,2.093-0.299,3.197v13.432h-2.898v-16.1c0-0.797-0.085-1.556-0.253-2.277
			c-0.169-0.72-0.445-1.349-0.828-1.886c-0.384-0.536-0.897-0.958-1.541-1.265c-0.644-0.306-1.426-0.46-2.346-0.46
			c-1.227,0-2.293,0.223-3.197,0.667c-0.905,0.445-1.641,1.058-2.208,1.84c-0.568,0.782-0.989,1.702-1.265,2.76
			c-0.276,1.058-0.414,2.216-0.414,3.473v13.248h-2.898V14.452H57.849z M95.637,30.345c0.291,1.12,0.759,2.124,1.403,3.013
			c0.644,0.89,1.457,1.626,2.438,2.208c0.981,0.583,2.162,0.874,3.542,0.874c2.116,0,3.772-0.552,4.969-1.655
			c1.195-1.104,2.023-2.576,2.483-4.417h2.898c-0.614,2.699-1.741,4.784-3.381,6.256c-1.642,1.472-3.964,2.208-6.97,2.208
			c-1.871,0-3.489-0.33-4.853-0.989c-1.365-0.659-2.477-1.564-3.335-2.714c-0.859-1.15-1.495-2.484-1.909-4.002
			c-0.414-1.518-0.621-3.12-0.621-4.807c0-1.564,0.207-3.097,0.621-4.6c0.414-1.502,1.05-2.844,1.909-4.025
			c0.858-1.18,1.97-2.131,3.335-2.852c1.364-0.72,2.981-1.081,4.853-1.081c1.901,0,3.526,0.384,4.876,1.15
			c1.35,0.767,2.445,1.771,3.289,3.013c0.844,1.242,1.449,2.668,1.817,4.278s0.521,3.243,0.46,4.899H95.2
			C95.2,28.145,95.345,29.226,95.637,30.345z M109.989,21.49c-0.354-1.012-0.852-1.909-1.495-2.691
			c-0.645-0.782-1.426-1.41-2.347-1.886c-0.92-0.475-1.963-0.713-3.128-0.713c-1.195,0-2.254,0.238-3.174,0.713
			c-0.92,0.476-1.702,1.104-2.346,1.886c-0.644,0.782-1.158,1.687-1.541,2.714c-0.384,1.028-0.637,2.078-0.759,3.151h15.364
			C110.533,23.56,110.341,22.502,109.989,21.49z M99.938,11.14l4.83-6.485h3.588l-6.072,6.485H99.938z M120.041,14.452v5.566h0.092
			c0.735-1.932,1.878-3.419,3.427-4.462c1.548-1.042,3.396-1.518,5.543-1.426v2.898c-1.318-0.061-2.515,0.115-3.588,0.529
			c-1.074,0.414-2.001,1.005-2.783,1.771c-0.782,0.767-1.388,1.679-1.816,2.737c-0.431,1.058-0.645,2.216-0.645,3.473v12.649h-2.898
			V14.452H120.041z M145.871,14.774c1.395,0.675,2.568,1.58,3.519,2.714c0.95,1.135,1.672,2.461,2.162,3.979
			c0.49,1.518,0.736,3.136,0.736,4.853c0,1.718-0.246,3.335-0.736,4.853s-1.212,2.845-2.162,3.979
			c-0.95,1.135-2.124,2.032-3.519,2.691c-1.396,0.659-2.998,0.989-4.808,0.989s-3.411-0.33-4.807-0.989s-2.569-1.557-3.52-2.691
			c-0.95-1.134-1.671-2.46-2.161-3.979c-0.491-1.518-0.736-3.135-0.736-4.853c0-1.717,0.245-3.335,0.736-4.853
			c0.49-1.518,1.211-2.844,2.161-3.979c0.95-1.134,2.124-2.039,3.52-2.714c1.396-0.674,2.997-1.012,4.807-1.012
			S144.475,14.1,145.871,14.774z M137.43,17.074c-1.043,0.583-1.909,1.35-2.599,2.3c-0.69,0.951-1.212,2.032-1.564,3.243
			s-0.529,2.446-0.529,3.703c0,1.258,0.177,2.492,0.529,3.703c0.353,1.212,0.874,2.292,1.564,3.243
			c0.689,0.951,1.556,1.718,2.599,2.3c1.042,0.583,2.254,0.874,3.634,0.874c1.381,0,2.592-0.291,3.635-0.874
			c1.042-0.582,1.909-1.349,2.599-2.3c0.69-0.95,1.211-2.031,1.564-3.243c0.352-1.211,0.528-2.445,0.528-3.703
			c0-1.257-0.177-2.491-0.528-3.703c-0.354-1.211-0.874-2.292-1.564-3.243c-0.689-0.95-1.557-1.717-2.599-2.3
			c-1.043-0.582-2.254-0.874-3.635-0.874C139.684,16.2,138.472,16.492,137.43,17.074z M189.127,30.052
			c-2.832-1.487-6.024-2.232-9.576-2.232h-1.079v-0.36c4.415-0.384,8.027-1.608,10.836-3.672c2.808-2.063,4.212-4.536,4.212-7.416
			c0-2.976-1.381-5.411-4.141-7.308c-2.761-1.896-6.3-2.844-10.62-2.844c-4.08,0-7.428,0.853-10.044,2.556
			c-2.616,1.704-3.924,3.876-3.924,6.516c0,1.393,0.443,2.509,1.332,3.348c0.888,0.84,2.052,1.26,3.492,1.26
			c1.056,0,1.932-0.325,2.628-0.978c0.695-0.652,1.044-1.461,1.044-2.428c0-1.69-1.032-2.85-3.096-3.478
			c-1.296-0.386-1.944-0.82-1.944-1.304c0-0.773,0.695-1.533,2.088-2.283c1.392-0.748,2.832-1.123,4.32-1.123
			c2.448,0,4.464,0.832,6.048,2.493c1.584,1.663,2.376,3.793,2.376,6.394c0,2.842-0.816,5.166-2.448,6.973s-3.936,2.903-6.912,3.287
			c-1.008,0.144-1.512,0.385-1.512,0.723c0,0.434,0.456,0.65,1.368,0.65h0.937c1.967,0,3.358,0.169,4.176,0.504
			c3.791,1.584,5.688,5.281,5.688,11.088c0,3.791-0.972,6.887-2.916,9.287c-1.943,2.4-4.428,3.601-7.452,3.601
			c-1.2,0-2.388-0.241-3.563-0.721c-1.177-0.479-1.764-0.984-1.764-1.512c0-0.288,0.359-0.72,1.079-1.296
			c1.2-0.961,1.801-2.016,1.801-3.168c0-2.496-1.296-3.744-3.889-3.744c-3.072,0-4.607,1.416-4.607,4.248
			c0,2.063,1.091,3.84,3.275,5.328c2.184,1.487,4.812,2.232,7.885,2.232c4.752,0,9.144-0.984,13.176-2.952
			c5.279-2.592,7.92-6.528,7.92-11.808C195.319,35.5,193.255,32.212,189.127,30.052L189.127,30.052z"/>
	</defs>
	<use xlink:href="#SVGID_1_"  overflow="visible" fill="#303234"/>
	<clipPath id="SVGID_2_">
		<use xlink:href="#SVGID_1_"  overflow="visible"/>
	</clipPath>
</g>
<g>
	<defs>
		<path id="SVGID_3_" d="M8.618,56.874c-0.256-0.216-0.6-0.324-1.032-0.324c-0.368,0-0.676,0.068-0.924,0.204
			c-0.248,0.137-0.446,0.316-0.594,0.54c-0.148,0.225-0.254,0.482-0.318,0.774c-0.064,0.292-0.096,0.594-0.096,0.906
			c0,0.287,0.034,0.567,0.102,0.84c0.068,0.271,0.174,0.514,0.318,0.726c0.144,0.212,0.332,0.382,0.564,0.51
			c0.232,0.129,0.508,0.192,0.828,0.192c0.504,0,0.898-0.132,1.182-0.396c0.284-0.264,0.458-0.636,0.522-1.115h1.044
			c-0.112,0.768-0.398,1.359-0.858,1.775c-0.46,0.416-1.086,0.624-1.878,0.624c-0.472,0-0.89-0.076-1.254-0.228
			c-0.364-0.152-0.668-0.368-0.912-0.648c-0.244-0.279-0.428-0.613-0.552-1.002c-0.124-0.388-0.186-0.813-0.186-1.277
			s0.06-0.898,0.18-1.303c0.12-0.403,0.302-0.756,0.546-1.056s0.55-0.536,0.918-0.708c0.368-0.172,0.796-0.258,1.284-0.258
			c0.352,0,0.682,0.042,0.99,0.126s0.58,0.214,0.816,0.39c0.236,0.177,0.43,0.398,0.582,0.666c0.152,0.269,0.248,0.586,0.288,0.954
			H9.122C9.042,57.395,8.874,57.09,8.618,56.874z M11.212,57.624c0.128-0.396,0.32-0.739,0.576-1.032
			c0.256-0.291,0.572-0.521,0.948-0.689s0.808-0.252,1.296-0.252c0.496,0,0.93,0.084,1.302,0.252s0.686,0.398,0.942,0.689
			c0.256,0.293,0.448,0.637,0.576,1.032c0.127,0.396,0.192,0.822,0.192,1.278s-0.064,0.88-0.192,1.271
			c-0.128,0.393-0.32,0.734-0.576,1.026c-0.256,0.292-0.57,0.521-0.942,0.684c-0.372,0.164-0.806,0.246-1.302,0.246
			c-0.488,0-0.92-0.082-1.296-0.246c-0.376-0.163-0.692-0.392-0.948-0.684s-0.448-0.634-0.576-1.026
			c-0.128-0.392-0.192-0.815-0.192-1.271S11.084,58.021,11.212,57.624z M12.25,59.904c0.1,0.292,0.238,0.536,0.414,0.731
			c0.176,0.196,0.382,0.347,0.618,0.45c0.236,0.104,0.486,0.156,0.75,0.156c0.264,0,0.514-0.052,0.75-0.156
			c0.236-0.104,0.442-0.254,0.618-0.45c0.176-0.195,0.314-0.439,0.414-0.731s0.15-0.626,0.15-1.002s-0.05-0.71-0.15-1.002
			s-0.238-0.538-0.414-0.738c-0.176-0.2-0.382-0.352-0.618-0.456c-0.236-0.104-0.486-0.156-0.75-0.156
			c-0.264,0-0.514,0.053-0.75,0.156c-0.236,0.104-0.442,0.256-0.618,0.456c-0.176,0.2-0.314,0.446-0.414,0.738
			s-0.15,0.626-0.15,1.002S12.15,59.612,12.25,59.904z M23.31,61.998l-1.26-4.932h-0.024l-1.248,4.932h-1.104l-1.992-6.204h1.128
			l1.404,5.076h0.024l1.248-5.076h1.116l1.296,5.076h0.024l1.392-5.076h1.056l-1.98,6.204H23.31z M27.198,57.624
			c0.128-0.396,0.32-0.739,0.576-1.032c0.256-0.291,0.572-0.521,0.948-0.689c0.376-0.168,0.808-0.252,1.296-0.252
			c0.496,0,0.93,0.084,1.302,0.252s0.686,0.398,0.942,0.689c0.256,0.293,0.448,0.637,0.576,1.032
			c0.128,0.396,0.192,0.822,0.192,1.278s-0.064,0.88-0.192,1.271c-0.128,0.393-0.32,0.734-0.576,1.026
			c-0.256,0.292-0.57,0.521-0.942,0.684c-0.372,0.164-0.806,0.246-1.302,0.246c-0.488,0-0.92-0.082-1.296-0.246
			c-0.376-0.163-0.692-0.392-0.948-0.684c-0.256-0.292-0.448-0.634-0.576-1.026c-0.128-0.392-0.192-0.815-0.192-1.271
			S27.07,58.021,27.198,57.624z M28.236,59.904c0.1,0.292,0.238,0.536,0.414,0.731c0.176,0.196,0.382,0.347,0.618,0.45
			c0.236,0.104,0.486,0.156,0.75,0.156s0.514-0.052,0.75-0.156c0.236-0.104,0.442-0.254,0.618-0.45
			c0.176-0.195,0.314-0.439,0.414-0.731s0.15-0.626,0.15-1.002s-0.05-0.71-0.15-1.002s-0.238-0.538-0.414-0.738
			s-0.382-0.352-0.618-0.456c-0.236-0.104-0.486-0.156-0.75-0.156s-0.514,0.053-0.75,0.156c-0.236,0.104-0.442,0.256-0.618,0.456
			s-0.314,0.446-0.414,0.738s-0.15,0.626-0.15,1.002S28.136,59.612,28.236,59.904z M35.155,55.794v1.309h0.024
			c0.248-0.504,0.552-0.876,0.912-1.116s0.816-0.352,1.368-0.336v1.08c-0.408,0-0.756,0.056-1.044,0.168
			c-0.288,0.112-0.52,0.275-0.696,0.492c-0.176,0.216-0.304,0.478-0.384,0.785c-0.08,0.309-0.12,0.662-0.12,1.062v2.76h-1.021
			v-6.204H35.155z M39.307,53.431v5.075l2.832-2.712h1.368l-2.46,2.256l2.64,3.948h-1.296l-2.124-3.24l-0.96,0.889v2.352h-1.021
			v-8.567H39.307z M44.517,54.679v-1.248h1.02v1.248H44.517z M45.537,55.794v6.204h-1.02v-6.204H45.537z M48.08,55.794v0.984h0.024
			c0.424-0.752,1.096-1.128,2.017-1.128c0.408,0,0.748,0.056,1.02,0.168s0.492,0.268,0.66,0.468s0.286,0.438,0.354,0.714
			c0.068,0.276,0.102,0.582,0.102,0.918v4.08h-1.021v-4.2c0-0.384-0.112-0.688-0.336-0.911c-0.224-0.225-0.532-0.337-0.924-0.337
			c-0.312,0-0.582,0.049-0.81,0.145s-0.418,0.232-0.57,0.408s-0.266,0.382-0.342,0.618c-0.076,0.235-0.114,0.493-0.114,0.773v3.504
			h-1.02v-6.204H48.08z M58.449,63.75c-0.464,0.504-1.192,0.756-2.184,0.756c-0.288,0-0.583-0.032-0.882-0.096
			c-0.3-0.064-0.572-0.168-0.816-0.312c-0.244-0.144-0.446-0.332-0.606-0.563c-0.16-0.232-0.248-0.516-0.264-0.852h1.02
			c0.008,0.184,0.066,0.34,0.174,0.468c0.108,0.128,0.24,0.231,0.396,0.312c0.156,0.08,0.326,0.139,0.51,0.174
			c0.184,0.036,0.36,0.055,0.528,0.055c0.336,0,0.62-0.059,0.853-0.174c0.232-0.116,0.424-0.276,0.576-0.48s0.262-0.45,0.33-0.738
			s0.102-0.604,0.102-0.947v-0.408h-0.024c-0.176,0.384-0.442,0.666-0.798,0.846c-0.356,0.18-0.734,0.271-1.134,0.271
			c-0.464,0-0.868-0.084-1.212-0.252c-0.344-0.169-0.632-0.395-0.864-0.679c-0.232-0.283-0.406-0.615-0.522-0.996
			c-0.116-0.38-0.174-0.781-0.174-1.206c0-0.367,0.048-0.745,0.144-1.134c0.096-0.388,0.256-0.739,0.48-1.056s0.52-0.576,0.888-0.78
			s0.82-0.306,1.356-0.306c0.392,0,0.752,0.086,1.081,0.258c0.328,0.172,0.584,0.43,0.768,0.774h0.012v-0.889h0.96v5.676
			C59.146,62.486,58.913,63.246,58.449,63.75z M57.147,60.96c0.236-0.14,0.426-0.324,0.57-0.552s0.25-0.486,0.318-0.774
			c0.068-0.287,0.102-0.575,0.102-0.863c0-0.272-0.032-0.54-0.096-0.805c-0.064-0.264-0.166-0.502-0.306-0.714
			c-0.14-0.212-0.322-0.382-0.546-0.51s-0.496-0.192-0.816-0.192c-0.328,0-0.608,0.062-0.84,0.187s-0.422,0.29-0.57,0.498
			c-0.148,0.208-0.256,0.448-0.324,0.72c-0.068,0.272-0.102,0.557-0.102,0.853c0,0.279,0.028,0.56,0.084,0.84
			s0.152,0.534,0.288,0.762s0.316,0.412,0.54,0.552c0.224,0.141,0.504,0.21,0.84,0.21S56.911,61.101,57.147,60.96z M64.798,60.612
			c0.096,0.156,0.222,0.28,0.378,0.372s0.332,0.158,0.528,0.198c0.196,0.04,0.398,0.06,0.606,0.06c0.16,0,0.328-0.012,0.504-0.036
			c0.176-0.023,0.338-0.067,0.486-0.132s0.271-0.158,0.366-0.282c0.096-0.124,0.144-0.282,0.144-0.474c0-0.265-0.1-0.464-0.3-0.601
			c-0.2-0.136-0.45-0.245-0.75-0.329c-0.3-0.084-0.626-0.16-0.978-0.229c-0.352-0.067-0.678-0.164-0.978-0.288
			c-0.3-0.124-0.55-0.298-0.75-0.521c-0.2-0.225-0.3-0.536-0.3-0.937c0-0.312,0.07-0.58,0.21-0.804
			c0.14-0.224,0.32-0.406,0.541-0.546c0.22-0.14,0.468-0.244,0.744-0.312c0.276-0.067,0.55-0.102,0.822-0.102
			c0.352,0,0.676,0.03,0.972,0.09s0.558,0.164,0.786,0.312c0.228,0.147,0.41,0.348,0.546,0.6s0.216,0.566,0.24,0.941h-1.02
			c-0.016-0.199-0.068-0.365-0.156-0.497c-0.088-0.133-0.2-0.238-0.336-0.318c-0.136-0.08-0.286-0.138-0.45-0.174
			s-0.33-0.055-0.498-0.055c-0.152,0-0.306,0.013-0.462,0.036c-0.156,0.024-0.298,0.066-0.426,0.126
			c-0.128,0.061-0.232,0.141-0.312,0.24c-0.08,0.101-0.12,0.23-0.12,0.39c0,0.177,0.062,0.322,0.186,0.438s0.282,0.212,0.474,0.288
			c0.192,0.076,0.408,0.14,0.648,0.191c0.24,0.053,0.48,0.106,0.72,0.162c0.256,0.057,0.506,0.124,0.75,0.204
			c0.244,0.08,0.46,0.187,0.648,0.318s0.34,0.298,0.456,0.498c0.116,0.2,0.174,0.448,0.174,0.744c0,0.376-0.078,0.688-0.234,0.936
			c-0.156,0.248-0.36,0.448-0.612,0.6c-0.252,0.152-0.536,0.259-0.852,0.318c-0.316,0.061-0.63,0.09-0.942,0.09
			c-0.344,0-0.672-0.036-0.984-0.107c-0.312-0.072-0.588-0.19-0.828-0.354c-0.24-0.164-0.432-0.38-0.576-0.647
			c-0.144-0.269-0.224-0.595-0.24-0.979h1.02C64.65,60.267,64.702,60.456,64.798,60.612z M71.074,55.794v0.84h0.024
			c0.168-0.344,0.432-0.594,0.792-0.75c0.36-0.155,0.756-0.233,1.188-0.233c0.48,0,0.898,0.088,1.254,0.264s0.652,0.414,0.888,0.714
			c0.236,0.301,0.414,0.646,0.534,1.038c0.12,0.393,0.18,0.809,0.18,1.248c0,0.44-0.058,0.856-0.174,1.248
			c-0.116,0.393-0.292,0.734-0.528,1.026s-0.532,0.521-0.888,0.689s-0.77,0.252-1.242,0.252c-0.152,0-0.322-0.016-0.51-0.048
			s-0.374-0.084-0.558-0.156c-0.184-0.071-0.358-0.17-0.522-0.294c-0.164-0.124-0.302-0.277-0.414-0.462h-0.024v3.192h-1.021v-8.568
			H71.074z M74.741,57.996c-0.076-0.275-0.192-0.521-0.348-0.738c-0.156-0.216-0.356-0.388-0.6-0.516
			c-0.244-0.128-0.53-0.192-0.858-0.192c-0.344,0-0.636,0.068-0.876,0.204c-0.24,0.137-0.436,0.314-0.588,0.534
			c-0.152,0.221-0.262,0.47-0.33,0.75c-0.068,0.28-0.102,0.564-0.102,0.853c0,0.304,0.036,0.598,0.108,0.882
			c0.072,0.284,0.186,0.534,0.342,0.75c0.156,0.216,0.358,0.39,0.606,0.521s0.548,0.198,0.9,0.198s0.646-0.068,0.882-0.204
			c0.236-0.136,0.426-0.315,0.57-0.54c0.144-0.224,0.248-0.479,0.312-0.768s0.096-0.584,0.096-0.889
			C74.854,58.555,74.816,58.272,74.741,57.996z M81.897,62.13c-0.264,0-0.474-0.074-0.63-0.222c-0.156-0.148-0.234-0.39-0.234-0.726
			c-0.28,0.336-0.606,0.577-0.978,0.726c-0.372,0.147-0.774,0.222-1.206,0.222c-0.28,0-0.544-0.029-0.792-0.09
			c-0.248-0.06-0.466-0.16-0.654-0.3s-0.336-0.32-0.444-0.54s-0.162-0.486-0.162-0.798c0-0.353,0.06-0.64,0.18-0.864
			c0.12-0.224,0.278-0.406,0.474-0.546c0.196-0.14,0.42-0.246,0.672-0.318c0.252-0.071,0.51-0.132,0.774-0.18
			c0.28-0.056,0.546-0.098,0.798-0.126s0.474-0.067,0.666-0.12c0.192-0.052,0.344-0.128,0.456-0.228
			c0.112-0.101,0.168-0.246,0.168-0.438c0-0.224-0.042-0.403-0.126-0.54c-0.084-0.136-0.192-0.239-0.324-0.312
			c-0.132-0.072-0.28-0.12-0.444-0.145c-0.164-0.023-0.326-0.036-0.486-0.036c-0.432,0-0.792,0.083-1.081,0.246
			c-0.288,0.164-0.444,0.475-0.468,0.931h-1.02c0.016-0.385,0.096-0.708,0.24-0.973c0.144-0.264,0.336-0.478,0.576-0.642
			s0.516-0.282,0.828-0.354c0.312-0.071,0.64-0.107,0.984-0.107c0.28,0,0.558,0.02,0.834,0.06c0.276,0.04,0.526,0.122,0.75,0.246
			c0.224,0.124,0.404,0.298,0.54,0.522c0.136,0.224,0.204,0.516,0.204,0.876v3.191c0,0.24,0.014,0.416,0.042,0.528
			c0.028,0.112,0.122,0.168,0.282,0.168c0.088,0,0.192-0.02,0.312-0.06v0.792C82.454,62.078,82.209,62.13,81.897,62.13L81.897,62.13
			z M80.469,59.004c-0.208,0.044-0.426,0.08-0.654,0.108s-0.458,0.06-0.69,0.096s-0.44,0.095-0.624,0.174
			c-0.184,0.08-0.334,0.194-0.45,0.343c-0.116,0.147-0.174,0.35-0.174,0.605c0,0.168,0.034,0.311,0.102,0.426
			c0.068,0.116,0.156,0.21,0.264,0.282s0.236,0.124,0.384,0.156s0.298,0.048,0.45,0.048c0.336,0,0.624-0.046,0.864-0.138
			c0.24-0.092,0.436-0.208,0.588-0.349c0.152-0.14,0.264-0.292,0.336-0.456c0.072-0.163,0.108-0.317,0.108-0.462v-1.044
			C80.845,58.891,80.677,58.96,80.469,59.004z M87.288,56.874c-0.256-0.216-0.6-0.324-1.032-0.324c-0.368,0-0.676,0.068-0.924,0.204
			c-0.248,0.137-0.446,0.316-0.594,0.54c-0.148,0.225-0.254,0.482-0.318,0.774c-0.064,0.292-0.096,0.594-0.096,0.906
			c0,0.287,0.034,0.567,0.102,0.84c0.068,0.271,0.174,0.514,0.318,0.726c0.144,0.212,0.332,0.382,0.564,0.51
			c0.232,0.129,0.508,0.192,0.828,0.192c0.504,0,0.898-0.132,1.182-0.396c0.284-0.264,0.458-0.636,0.522-1.115h1.044
			c-0.112,0.768-0.398,1.359-0.858,1.775c-0.46,0.416-1.086,0.624-1.878,0.624c-0.472,0-0.89-0.076-1.254-0.228
			c-0.364-0.152-0.668-0.368-0.912-0.648c-0.244-0.279-0.428-0.613-0.552-1.002c-0.124-0.388-0.186-0.813-0.186-1.277
			s0.06-0.898,0.18-1.303c0.12-0.403,0.302-0.756,0.546-1.056s0.55-0.536,0.918-0.708c0.368-0.172,0.796-0.258,1.284-0.258
			c0.352,0,0.682,0.042,0.99,0.126s0.58,0.214,0.816,0.39c0.236,0.177,0.43,0.398,0.582,0.666c0.152,0.269,0.248,0.586,0.288,0.954
			h-1.056C87.712,57.395,87.544,57.09,87.288,56.874z M94.415,61.603c-0.464,0.352-1.048,0.527-1.752,0.527
			c-0.496,0-0.926-0.08-1.29-0.239c-0.364-0.16-0.67-0.385-0.918-0.673c-0.248-0.288-0.434-0.632-0.558-1.031
			c-0.124-0.4-0.194-0.836-0.21-1.309c0-0.472,0.072-0.903,0.216-1.296c0.144-0.392,0.346-0.731,0.606-1.02
			c0.26-0.288,0.568-0.512,0.924-0.672s0.746-0.24,1.17-0.24c0.552,0,1.01,0.114,1.375,0.342c0.364,0.229,0.656,0.519,0.876,0.87
			c0.22,0.353,0.372,0.736,0.456,1.152s0.118,0.812,0.102,1.188h-4.645c-0.008,0.272,0.024,0.53,0.096,0.774
			c0.072,0.244,0.188,0.46,0.348,0.647c0.16,0.188,0.364,0.338,0.612,0.45s0.54,0.168,0.876,0.168c0.432,0,0.786-0.1,1.062-0.3
			c0.276-0.2,0.458-0.504,0.546-0.912h1.008C95.178,60.727,94.878,61.25,94.415,61.603z M94.168,57.618
			c-0.092-0.216-0.216-0.402-0.372-0.558c-0.156-0.156-0.34-0.28-0.552-0.372s-0.446-0.139-0.702-0.139
			c-0.264,0-0.502,0.047-0.714,0.139s-0.394,0.218-0.546,0.378c-0.152,0.16-0.272,0.346-0.36,0.558s-0.14,0.438-0.156,0.678h3.564
			C94.314,58.062,94.26,57.834,94.168,57.618z M101.113,53.431v7.607h4.536v0.96h-5.676v-8.567H101.113z M111.242,62.13
			c-0.264,0-0.474-0.074-0.63-0.222c-0.156-0.148-0.234-0.39-0.234-0.726c-0.28,0.336-0.605,0.577-0.978,0.726
			c-0.372,0.147-0.774,0.222-1.206,0.222c-0.28,0-0.545-0.029-0.793-0.09c-0.248-0.06-0.466-0.16-0.653-0.3
			c-0.188-0.14-0.336-0.32-0.444-0.54s-0.162-0.486-0.162-0.798c0-0.353,0.06-0.64,0.18-0.864c0.12-0.224,0.278-0.406,0.475-0.546
			c0.195-0.14,0.42-0.246,0.672-0.318c0.252-0.071,0.51-0.132,0.774-0.18c0.279-0.056,0.546-0.098,0.798-0.126
			s0.474-0.067,0.666-0.12c0.192-0.052,0.344-0.128,0.456-0.228c0.112-0.101,0.168-0.246,0.168-0.438
			c0-0.224-0.042-0.403-0.126-0.54c-0.084-0.136-0.192-0.239-0.324-0.312s-0.28-0.12-0.444-0.145
			c-0.164-0.023-0.325-0.036-0.485-0.036c-0.433,0-0.792,0.083-1.08,0.246c-0.288,0.164-0.444,0.475-0.469,0.931h-1.02
			c0.016-0.385,0.096-0.708,0.24-0.973c0.144-0.264,0.336-0.478,0.575-0.642c0.24-0.164,0.517-0.282,0.828-0.354
			c0.312-0.071,0.641-0.107,0.984-0.107c0.28,0,0.559,0.02,0.834,0.06c0.276,0.04,0.526,0.122,0.75,0.246
			c0.225,0.124,0.404,0.298,0.54,0.522c0.137,0.224,0.204,0.516,0.204,0.876v3.191c0,0.24,0.015,0.416,0.042,0.528
			c0.028,0.112,0.122,0.168,0.282,0.168c0.088,0,0.192-0.02,0.312-0.06v0.792C111.798,62.078,111.555,62.13,111.242,62.13
			L111.242,62.13z M109.814,59.004c-0.209,0.044-0.427,0.08-0.654,0.108c-0.229,0.028-0.458,0.06-0.69,0.096
			s-0.44,0.095-0.624,0.174c-0.184,0.08-0.334,0.194-0.45,0.343c-0.116,0.147-0.174,0.35-0.174,0.605
			c0,0.168,0.034,0.311,0.103,0.426c0.067,0.116,0.155,0.21,0.264,0.282c0.107,0.072,0.235,0.124,0.384,0.156
			s0.298,0.048,0.45,0.048c0.336,0,0.624-0.046,0.864-0.138s0.436-0.208,0.588-0.349c0.152-0.14,0.264-0.292,0.336-0.456
			c0.072-0.163,0.108-0.317,0.108-0.462v-1.044C110.19,58.891,110.022,58.96,109.814,59.004z M117.101,61.998v-0.983h-0.023
			c-0.216,0.384-0.492,0.665-0.828,0.846c-0.336,0.18-0.732,0.27-1.188,0.27c-0.408,0-0.748-0.054-1.02-0.162
			c-0.272-0.107-0.492-0.262-0.66-0.462c-0.168-0.199-0.286-0.438-0.354-0.714c-0.068-0.275-0.102-0.582-0.102-0.918v-4.08h1.02v4.2
			c0,0.384,0.112,0.688,0.336,0.912c0.225,0.224,0.532,0.336,0.925,0.336c0.312,0,0.582-0.048,0.81-0.144
			c0.229-0.097,0.418-0.232,0.57-0.408c0.151-0.176,0.266-0.382,0.342-0.618s0.114-0.494,0.114-0.774v-3.504h1.021v6.204H117.101z
			 M120.377,60.612c0.097,0.156,0.223,0.28,0.378,0.372c0.156,0.092,0.332,0.158,0.528,0.198s0.398,0.06,0.606,0.06
			c0.159,0,0.328-0.012,0.504-0.036c0.176-0.023,0.338-0.067,0.486-0.132c0.147-0.064,0.27-0.158,0.365-0.282
			c0.097-0.124,0.145-0.282,0.145-0.474c0-0.265-0.101-0.464-0.3-0.601c-0.2-0.136-0.45-0.245-0.75-0.329
			c-0.301-0.084-0.627-0.16-0.979-0.229c-0.353-0.067-0.678-0.164-0.979-0.288c-0.3-0.124-0.55-0.298-0.75-0.521
			c-0.2-0.225-0.3-0.536-0.3-0.937c0-0.312,0.07-0.58,0.21-0.804s0.32-0.406,0.54-0.546s0.468-0.244,0.744-0.312
			c0.276-0.067,0.55-0.102,0.822-0.102c0.352,0,0.676,0.03,0.972,0.09s0.559,0.164,0.786,0.312c0.229,0.147,0.41,0.348,0.546,0.6
			c0.137,0.252,0.217,0.566,0.24,0.941h-1.02c-0.017-0.199-0.068-0.365-0.156-0.497c-0.088-0.133-0.2-0.238-0.336-0.318
			c-0.137-0.08-0.286-0.138-0.45-0.174s-0.33-0.055-0.498-0.055c-0.152,0-0.306,0.013-0.462,0.036
			c-0.156,0.024-0.299,0.066-0.426,0.126c-0.129,0.061-0.232,0.141-0.312,0.24c-0.08,0.101-0.12,0.23-0.12,0.39
			c0,0.177,0.062,0.322,0.187,0.438c0.123,0.116,0.281,0.212,0.474,0.288s0.408,0.14,0.648,0.191
			c0.239,0.053,0.479,0.106,0.72,0.162c0.256,0.057,0.506,0.124,0.75,0.204s0.46,0.187,0.648,0.318
			c0.188,0.132,0.34,0.298,0.456,0.498c0.115,0.2,0.174,0.448,0.174,0.744c0,0.376-0.078,0.688-0.234,0.936
			c-0.155,0.248-0.359,0.448-0.611,0.6c-0.253,0.152-0.536,0.259-0.853,0.318c-0.316,0.061-0.63,0.09-0.942,0.09
			c-0.344,0-0.672-0.036-0.983-0.107c-0.312-0.072-0.589-0.19-0.828-0.354c-0.24-0.164-0.433-0.38-0.576-0.647
			c-0.145-0.269-0.225-0.595-0.24-0.979h1.02C120.229,60.267,120.281,60.456,120.377,60.612z M130.361,62.13
			c-0.264,0-0.474-0.074-0.63-0.222c-0.156-0.148-0.234-0.39-0.234-0.726c-0.28,0.336-0.605,0.577-0.978,0.726
			c-0.372,0.147-0.774,0.222-1.206,0.222c-0.28,0-0.545-0.029-0.792-0.09c-0.249-0.06-0.467-0.16-0.654-0.3
			c-0.188-0.14-0.336-0.32-0.444-0.54s-0.162-0.486-0.162-0.798c0-0.353,0.061-0.64,0.18-0.864c0.12-0.224,0.278-0.406,0.475-0.546
			s0.42-0.246,0.672-0.318c0.252-0.071,0.51-0.132,0.774-0.18c0.279-0.056,0.546-0.098,0.798-0.126s0.474-0.067,0.666-0.12
			c0.192-0.052,0.344-0.128,0.456-0.228c0.112-0.101,0.168-0.246,0.168-0.438c0-0.224-0.042-0.403-0.126-0.54
			c-0.084-0.136-0.192-0.239-0.324-0.312s-0.28-0.12-0.443-0.145c-0.164-0.023-0.326-0.036-0.486-0.036
			c-0.433,0-0.792,0.083-1.08,0.246c-0.288,0.164-0.444,0.475-0.468,0.931h-1.021c0.016-0.385,0.096-0.708,0.24-0.973
			c0.144-0.264,0.336-0.478,0.576-0.642c0.239-0.164,0.516-0.282,0.828-0.354c0.312-0.071,0.64-0.107,0.983-0.107
			c0.28,0,0.559,0.02,0.834,0.06c0.276,0.04,0.526,0.122,0.751,0.246c0.224,0.124,0.403,0.298,0.54,0.522
			c0.136,0.224,0.203,0.516,0.203,0.876v3.191c0,0.24,0.015,0.416,0.042,0.528c0.028,0.112,0.122,0.168,0.282,0.168
			c0.088,0,0.192-0.02,0.312-0.06v0.792C130.918,62.078,130.674,62.13,130.361,62.13L130.361,62.13z M128.934,59.004
			c-0.208,0.044-0.427,0.08-0.654,0.108c-0.229,0.028-0.458,0.06-0.69,0.096c-0.231,0.036-0.439,0.095-0.624,0.174
			c-0.184,0.08-0.334,0.194-0.45,0.343c-0.115,0.147-0.174,0.35-0.174,0.605c0,0.168,0.034,0.311,0.103,0.426
			c0.067,0.116,0.155,0.21,0.264,0.282s0.236,0.124,0.384,0.156c0.148,0.032,0.298,0.048,0.45,0.048
			c0.336,0,0.624-0.046,0.864-0.138s0.436-0.208,0.588-0.349c0.152-0.14,0.265-0.292,0.336-0.456
			c0.072-0.163,0.108-0.317,0.108-0.462v-1.044C129.31,58.891,129.142,58.96,128.934,59.004z M132.999,55.794v0.984h0.024
			c0.424-0.752,1.096-1.128,2.016-1.128c0.408,0,0.748,0.056,1.021,0.168c0.271,0.112,0.492,0.268,0.66,0.468
			s0.286,0.438,0.354,0.714c0.068,0.276,0.103,0.582,0.103,0.918v4.08h-1.021v-4.2c0-0.384-0.112-0.688-0.336-0.911
			c-0.224-0.225-0.532-0.337-0.924-0.337c-0.312,0-0.582,0.049-0.811,0.145c-0.228,0.096-0.418,0.232-0.569,0.408
			c-0.152,0.176-0.267,0.382-0.343,0.618c-0.076,0.235-0.113,0.493-0.113,0.773v3.504h-1.021v-6.204H132.999z M139.672,55.794v0.984
			h0.024c0.424-0.752,1.096-1.128,2.016-1.128c0.408,0,0.748,0.056,1.021,0.168c0.271,0.112,0.492,0.268,0.66,0.468
			s0.286,0.438,0.354,0.714c0.068,0.276,0.103,0.582,0.103,0.918v4.08h-1.021v-4.2c0-0.384-0.112-0.688-0.336-0.911
			c-0.225-0.225-0.532-0.337-0.924-0.337c-0.312,0-0.582,0.049-0.811,0.145c-0.228,0.096-0.418,0.232-0.57,0.408
			c-0.151,0.176-0.266,0.382-0.342,0.618c-0.076,0.235-0.114,0.493-0.114,0.773v3.504h-1.02v-6.204H139.672z M149.776,61.603
			c-0.464,0.352-1.048,0.527-1.752,0.527c-0.496,0-0.926-0.08-1.29-0.239c-0.364-0.16-0.67-0.385-0.918-0.673
			s-0.435-0.632-0.559-1.031c-0.124-0.4-0.193-0.836-0.21-1.309c0-0.472,0.072-0.903,0.217-1.296
			c0.144-0.392,0.346-0.731,0.605-1.02s0.568-0.512,0.925-0.672c0.355-0.16,0.745-0.24,1.17-0.24c0.552,0,1.01,0.114,1.374,0.342
			c0.364,0.229,0.656,0.519,0.876,0.87c0.22,0.353,0.372,0.736,0.456,1.152s0.118,0.812,0.103,1.188h-4.646
			c-0.008,0.272,0.024,0.53,0.097,0.774s0.188,0.46,0.348,0.647c0.16,0.188,0.364,0.338,0.612,0.45s0.54,0.168,0.876,0.168
			c0.433,0,0.786-0.1,1.062-0.3c0.275-0.2,0.458-0.504,0.546-0.912h1.008C150.541,60.727,150.241,61.25,149.776,61.603z
			 M149.531,57.618c-0.093-0.216-0.217-0.402-0.372-0.558c-0.156-0.156-0.341-0.28-0.553-0.372s-0.446-0.139-0.702-0.139
			c-0.264,0-0.502,0.047-0.714,0.139s-0.395,0.218-0.546,0.378c-0.152,0.16-0.272,0.346-0.36,0.558s-0.14,0.438-0.156,0.678h3.564
			C149.677,58.062,149.623,57.834,149.531,57.618z"/>
	</defs>
	<use xlink:href="#SVGID_3_"  overflow="visible" fill="#919191"/>
	<clipPath id="SVGID_4_">
		<use xlink:href="#SVGID_3_"  overflow="visible"/>
	</clipPath>
</g>
<line fill="#919191" stroke="#000000" stroke-width="0.25" stroke-miterlimit="10" x1="5.001" y1="45.667" x2="150.773" y2="45.667"/>
</svg>
